<?xml version="1.0" encoding="UTF-8"?>
<svg width="193" height="34" viewBox="0 0 193 34" xmlns="http://www.w3.org/2000/svg">
 <path d="m124.77 15.561c-0.29-0.1431-5.798 0.8733-7.247 0.9592-3.407 0.2073-6.813-0.4262-9.91-1.8432-3.097-1.4171-5.789-3.5731-7.832-6.2739-0.4204-0.50105-1.0872-0.88758-1.4495-1.4316-0.5653-0.98779-0.4638-2.7916-1.2321-3.6219l-0.5363-0.32926-0.8842-0.07158-0.2754 0.15748c-1.4495 0.74442-2.0728 3.0636-3.1019 4.2947-2.5899 2.8257-5.5092 5.3389-8.697 7.4872-2.1096 1.3668-4.5656 2.1208-7.088 2.176-1.1089 0.2353-2.2462 0.3124-3.3773 0.2291-1.4451-0.4401-2.8172-1.0864-4.0731-1.9184-0.3334-0.272-0.4493-0.7301-0.7972-0.9734-0.2693-0.1519-0.574-0.2318-0.8842-0.2318-0.3101 0-0.6149 0.0799-0.8842 0.2318-0.4327 0.3891-0.7835 0.8588-1.0322 1.382-0.2488 0.5232-0.3906 1.0898-0.4173 1.6672-0.0614 1.1711 0.0858 2.3437 0.4349 3.4645 0.013 0.6403 0.1664 1.2703 0.4493 1.8467 1.7539 2.3478 6.5662 0.8303 9.2188 0.3292 0.5943-0.1288 1.6959-0.6012 2.4786-0.2433s0.1305 2.6054-0.0869 3.1351c-0.4494 1.131-0.6378 3.8224 0.5073 4.395l0.8552 0.1718c2.6381 0.7587 5.3051-0.2291 8.0302-0.544 4.1185-0.3069 8.2508-0.3929 12.379-0.2577 2.6528 0.272 4.8848 0.3865 7.4798 0.816 1.377 0.2433 3.899 0.9448 5.667 0.4008 2.754-0.8303 0-5.4972 1.348-7.4012v-0.0716c0.884-0.6299 1.638 0.1002 2.754 0.0716 1.678-0.021 3.335-0.3765 4.87-1.0451 0.74-0.4438 1.45-1.5031 2.044-2.0758 0.421-0.4294 2.711-4.1945 1.29-4.8817zm-32.947-2.5195c0.5073-0.5011 1.4495-1.5461 2.2177-1.7036 2.1887-0.4152 3.5367 1.8181 4.5224 2.6627l-0.1884 0.4868c-1.5655 0.1861-6.3343 1.0164-7.7983 0.3149l-0.2609-0.5726c0.4795-0.4237 0.9828-0.8204 1.5075-1.1882zm15.162 12.612-0.536 0.6442c-1.553 0.3323-3.159 0.3323-4.711 0-2.1744-0.2434-3.363 0.1002-5.9286 0-2.4972-0.0705-4.9957 0.0829-7.4649 0.4581-1.3155 0.2444-2.6682 0.2152-3.9716-0.0859-0.9132-0.315-0.4494-1.9899 0.087-2.4051 0.8552-0.6442 4.0875-0.6155 5.5805-0.7301 1.8988-0.1288 4.0441-0.229 5.7979-0.1861 3.4643 0 8.3487-0.4724 10.727 1.0021 0.202 0.1441 0.35 0.3491 0.424 0.5842 0.073 0.2351 0.066 0.4874-0.019 0.7186h0.015zm-4.175-5.6261c-3.3624 0.229-6.7977-0.0859-10.364 0.1574-2.1162 0.1432-6.3053 0.7445-8.1606 0.1718h-0.1739c-1.4495-0.8303 0.7392-2.0185 1.4494-2.4337l1.1452-0.4724c0.5363 0 1.0001 0.8303 1.4495 0.8876 1.6089 0.2863 3.7252-0.3293 5.4935-0.1575 0.4784 0 6.7114-0.5583 6.7404-0.5726 0.507-0.2004 1-1.0307 1.449-1.1166 0.45-0.0859 5.074 2.5196 5.262 3.3069 0.188 0.7874-2.754 0.0573-4.305 0.2291h0.014z" fill="#CB2529"/>
 <path d="m192.55 24.523c-0.979-0.07-1.962 0.0417-2.899 0.3293-1.92 0.2866-3.868 0.3299-5.798 0.1288-3.67-0.7142-7.232-1.893-10.596-3.5074-0.82-0.4492-1.584-0.9922-2.276-1.6177v-0.7873c0.797-1.4316 4.581-0.3722 6.335-0.7588 1.048-0.2805 2.113-0.4957 3.188-0.6442 0.859 0.0257 1.716-0.0609 2.551-0.2577 1.914-0.9448-0.782-4.6955-3.13-3.9654-0.986 0.3149-1.624 0.9448-2.45 1.1882-1.45 0.4581-5.668 1.4316-4.073-0.8876 0.435-0.5882 1.02-1.0525 1.696-1.3457 1.123-0.6328 2.327-1.1143 3.58-1.4316 0.925-0.1058 1.837-0.2975 2.725-0.5726 0.91-0.60495 1.548-1.533 1.783-2.5912 0.072-1.317-2.827-1.0737-4.349-0.88757-1.873 0.29624-3.771 0.41129-5.667 0.34357-1.855-0.15748-6.073-1.7465-8.132-1.2598-0.449 0.11453-0.695 0.70147-1.014 0.95916-0.319 0.25768-1.044 0.48672-1.131 0.94482-0.056 0.90391-0.012 1.8111 0.13 2.7056 0.102 1.5175-0.521 0.9449-1.608 0.587-1.394-0.3114-2.835-0.3599-4.247-0.1432l-0.479 0.1002c-1.175 0.2496-2.38 0.3363-3.58 0.2577-0.58-0.1002-0.71-1.0021-0.681-1.0021 0.188-0.5583 0.159-1.589 0.739-1.8181 0.376-0.07749 0.762-0.1016 1.145-0.07159 2.638-0.1861 4.551-0.30064 5.465-1.8467 0.319-0.544 0.145-1.7036-0.479-1.861-2.015-0.52968-4.145 1.36-6.059 0.65851-1.449-0.51536-0.478-2.2476-0.362-2.6341 0.522-1.861-0.594-2.3048-2.58-2.1617-1.45 0.10021-1.261 0.3722-1.841 1.1739-0.29 0.38653-0.594 3.6648-0.29 3.1208-0.899 1.5604-4.479-0.42947-6.899 0.12884-0.696 0.17179-1.232 1.4316-1.696 1.8324s-1.102 1.045-0.638 1.7895c0.464 0.74443 1.333 0.6299 2.45 0.44379 1.898-0.30063 7.073-0.98779 6.798 0.95915-0.087 0.7301 0 1.4316-0.827 1.6463-3.229 0.3726-6.49 0.4014-9.726 0.0859-1.199-0.3544-2.433-0.58-3.681-0.6728-0.757 0.0915-1.471 0.3945-2.059 0.8732-0.747 0.7508-1.351 1.6286-1.783 2.5912-0.089 0.1388-0.14 0.2987-0.147 0.4634s0.031 0.3282 0.109 0.4738 0.194 0.2681 0.336 0.3549c0.141 0.0869 0.304 0.135 0.471 0.1395 0.724 0 1.449-0.4867 2.072-0.5726 2.523-0.3723 5.871-1.3314 8.958-0.7731 0.595 0.1002 0.972 1.1596 0.667 1.7179-0.174 0.3006-1.159 0.4724-1.609 0.5583-2.073 0.3293-4.899-0.7015-6.392 0.4438-0.304 0.1998-0.557 0.4669-0.738 0.78s-0.286 0.6637-0.306 1.0238l-0.087 0.4581c0.131 0.4724 0.884 0.6299 1.624 0.6156 1.174 0 2.478-0.4725 3.667-0.587 1.88-0.1551 3.767-0.2173 5.653-0.1861 0.818-0.1086 1.646-0.1086 2.464 0 0.334 0.1145 0.464 0.4152 0.565 0.7874 0.08 0.2634 0.097 0.5414 0.049 0.8122s-0.159 0.5269-0.324 0.7482c-0.638 0.7015-7.726 0.4295-9.436 0.544-2.725 0.1861-3.754-0.5154-5.276 0.9019-0.595 0.5297-0.609 0.7444-0.073 1.3314 0.355 0.5016 0.863 0.8779 1.45 1.0736 2.377 0.5727 6.406-0.4867 8.494-0.773 0.652-0.1002 4.508-0.6013 4.899 0 0.077 0.1867 0.11 0.3887 0.095 0.5899s-0.077 0.3962-0.182 0.5697c-1.362 3.0063-18.365 0.501-15.249 5.2682 0.463 0.7138 1.128 1.2767 1.914 1.6177 2.783 0.8589 5.102-0.6586 6.87-1.1596 3.247-0.8876 7.509-0.6585 9.422-2.5769 0.629-0.7513 0.986-1.6883 1.015-2.6627 0-0.5726 0-1.8754 0.116-1.904 0.42-0.1145 0.565 0 1.014 0 2.899 0 5.494 0.9162 6.972-0.6871l0.566-0.5297c1.261-2.9634-6.914-0.5154-8.552-1.5748 0.188-0.773 0-2.2619 0.681-2.5768 1.812-0.816 7.247 1.3027 8.204-0.7731 0.113-0.1804 0.164-0.3921 0.146-0.6035s-0.105-0.4114-0.247-0.5704c-1.044-1.3456-2.45-0.7157-3.871-1.5317 0-0.5727 0.406-1.4316 1.203-1.6463 1.131-0.2148 2.117 0.1145 3.204 0 0.623-0.0859 1.551-0.5727 2.276-0.4152 0.724 0.1575 0.753 4.2947 0.637 5.2825-0.42 3.1781-3 11.195-0.666 13.629 1.072 1.1453 4.145 1.088 3.565-1.045-0.304-1.131-0.71-8.4606 0.435-8.9474 0.652-0.272 0.754-0.1002 1.29 0.0716 1.183 0.6691 2.214 1.5705 3.03 2.6484 1.709 1.5307 3.621 2.8261 5.682 3.851 0.637 0.2433 3.478 2.2762 4.58 2.677 1.138 0.2317 2.322 0.0805 3.363-0.4295 1.826-0.6299 4.812-3.2353 6.204-4.3806 0.478-0.4151 1.029-0.7587 1.449-1.1882 0.421-0.4295 1.16-1.2455 0.189-1.4602zm-39.05-9.3625c-0.445 0.4315-0.986 0.7549-1.58 0.9448-2.252 0.3212-4.535 0.3644-6.798 0.1289-0.681-0.2864 0-1.3171 0.363-1.5462 1.054-0.5111 2.218-0.7616 3.391-0.7301h3.117c1.464-0.1002 2.739-0.0429 1.507 1.2026zm14.075 1.36c-0.681 0.0715-0.681 0.1002-0.783-0.2863 0.06-1.8899 0.279-3.7717 0.652-5.6262 1.331-0.2708 2.686-0.4146 4.045-0.4294 0.265-0.0453 0.536-0.0369 0.798 0.0246 0.261 0.0616 0.508 0.1749 0.724 0.3333-0.305 1.4316-1.45 2.3334-1.87 3.6219-0.174 0.5153 0.145 1.0021-0.174 1.4315-1.063 0.5145-2.213 0.8299-3.392 0.9306z" fill="#CB2529"/>
 <path d="m51.24 21.287c0-0.7444 0-1.4316 0.2754-1.7465 0.5508-0.544 1.6959-0.1289 3.0294 0 0.7103 0.0859 1.2321 0.6728 2.2467 0.4867 2.6526-0.4438-2.4641-5.9267-2.638-7.1579-0.2754-2.1903 3.4643-0.5583 3.8411-2.0328 0.5508-2.1188-1.4495-3.0493-2.2467-4.0657-1.0002-1.4316-2.899-6.9718-5.1312-6.8-0.4343 0.097062-0.8469 0.27172-1.2176 0.51537-1.5414 0.97728-2.8756 2.2415-3.9281 3.7221-0.3914 0.48673-1.0581 0.80167-1.4495 1.2884s-2.2467 3.7364-2.899 3.9082h-0.7537c-1.609-0.31494-3.1889-7.7878-5.885-8.2316-0.5725-0.08659-1.1581-0.00183-1.6814 0.24336-2.1742 1.0594-3.8266 3.6648-5.7979 5.0821-0.4059 0.30063-0.6813 0.74443-1.2176 0.94485-0.7112 0.26641-1.4793 0.35015-2.2322 0.24336l-0.1885-0.41515 0.087-0.1718c0-1.4316 0-2.6627-0.9277-3.221-1.348-0.78737-3.4643-0.20043-5.1457-0.07159-0.6919-0.041-1.3798-0.13189-2.0583-0.27198-1.1306-0.07158-2.3191 0.28631-3.6382 0.17179-1.7539-0.17179-3.8556-0.20043-5.6965-0.34359-0.64091-0.14418-1.3076-0.13357-1.9434 0.03091-0.63588 0.16448-1.2222 0.47798-1.7093 0.91394-0.36561 0.34624-0.70929 0.71438-1.0291 1.1023-0.5508 0.80168 0 4.5238 0.08697 5.5975 0.05946 1.8729-0.06188 3.7472-0.36237 5.5974-0.24716 1.1716-0.56172 2.3283-0.94217 3.4645-0.15418 0.8946-0.11781 1.8112 0.10681 2.6911 0.22462 0.88 0.63254 1.7041 1.1977 2.4196l0.47833 0.3293c0.47115 0.132 0.96574 0.1614 1.4495 0.0858 1.0581-0.1145 16.104-3.2783 13.263 0-0.4131 0.4307-0.9049 0.7804-1.4495 1.0308-1.164 0.2831-2.3536 0.4509-3.5512 0.501-2.4207 0.3866-6.3198 0.2005-8.0302 1.2742l-0.18844 0.0858c-0.62173 0.3385-1.1649 0.8018-1.5944 1.36-0.37687 0.5297-1.0002 3.7651 0 4.0657 0.53771 0.044 1.079-0.0143 1.5944-0.1718 2.6293-0.3223 5.2212-0.8928 7.7403-1.7035 2.2281-0.3399 4.4208-0.8765 6.5517-1.6034 1.3095-0.7303 2.4305-1.7494 3.2759-2.9777 0.9325-1.2902 1.5975-2.7498 1.9568-4.2947 0.087-0.587-0.1739-1.3028 0-1.8611l0.1884-0.2577c0.6258-0.2257 1.3006-0.285 1.9568-0.1717 4.3485 0.501 0.4349 2.7343-0.4638 3.6505l-0.4638 0.6871c-1.0292 2.0472 1.6234 5.2969 3.0874 3.8796 1.0581-1.0164 0.4059-3.3356 0.2754-4.9962l0.087-0.5869c0.0383-0.8258 0.1303-1.6483 0.2754-2.4624 0.3044-0.9448 3.0294-0.816 3.8411-0.7587 1.1601-0.0596 2.3228 0.0513 3.4498 0.3293 1.0727 0.4581-1.0726 3.1351-1.4495 3.9082-0.3768 0.773-1.4495 2.4623-0.6523 3.8223 0.9857 1.7608 3.073 0.6013 3.3629-0.9449 0.2899-1.5461-0.2899-3.1208-0.1885-4.6526-0.0511-0.6102 0.117-1.2187 0.4749-1.7187 0.3578-0.5 0.8825-0.8596 1.482-1.0156 1.2737-0.228 2.5813-0.1939 3.8411 0.1002 1.9713 0.4152-0.5798 2.8632-0.7392 3.5646-0.4949 1.94-0.6566 3.9483-0.4784 5.9411 0.137 0.2297 0.3192 0.4298 0.5359 0.5886 0.2168 0.1588 0.4637 0.273 0.7259 0.3357 0.2623 0.0628 0.5347 0.0728 0.801 0.0296s0.5211-0.1388 0.7493-0.2811c1.5944-1.0593 0.3913-6.7713 0.0869-8.4892-0.0869-0.5011-0.7247-1.6034-0.2754-2.2762 0.4494-0.6729 3.3049-0.2577 4.2035-0.2577h1.58c2.2612 0.229 0.9567 2.8631 0.4783 4.0656-0.6377 1.4316-1.7974 7.5015 0.6523 7.974 0.4899 0.0384 0.9827-0.02 1.4495-0.1718 0.8628-0.045 1.6872-0.3667 2.3482-0.9162 1.6379-1.2741 2.2032-3.5647 3.8266-4.8531 0.566-0.3295 1.0872-0.7287 1.551-1.1882 1.0436-2.1187-8.465 0.7874-8.2476-2.8918zm-34.179-0.7587c-1.203 0.6871-6.3922 0-8.3925 0.2576-0.65227 0.0716-1.6379 0.6729-2.5366 0.4152-0.89869-0.2577-0.46385-2.0901 0.10145-2.3764 1.6377-0.4743 3.3377-0.7058 5.0443-0.6872 1.4494-0.1145 5.3051 0.1861 5.8994 0.9449 0.3189 0.4008 0.4493 1.1452-0.087 1.4602l-0.029-0.0143zm-0.2754-4.4952c-0.9289 0.1147-1.8686 0.1147-2.7975 0-2.4952-0.1589-5.0002-0.0773-7.4794 0.2434-0.31889-0.4009-0.39137-0.4724-0.18844-1.0021 0.30439-0.816 0.81173-0.9306 1.7829-1.1167 1.3596-0.2589 2.7346-0.4311 4.1165-0.5153 1.1451 0 4.7109 0.3149 5.1312 0.8589 0.0914 0.1308 0.1505 0.281 0.1724 0.4384 0.022 0.1575 0.0063 0.3178-0.0459 0.4682-0.0522 0.1503-0.1393 0.2865-0.2544 0.3976s-0.255 0.1939-0.4084 0.2419l-0.029-0.0143zm1.1306-5.5975-0.5653 0.6729c-1.7249 0.5297-4.102-0.272-5.9864-0.0859-1.2099 0.3387-2.4726 0.4551-3.7252 0.3436-0.55081-0.1718-0.55081-1.0021-0.47833-1.5318 0.07247-0.52968 0.3189-1.4316 0.94218-1.5318 3.2188 0.0488 6.4322 0.27824 9.6246 0.68717 0.5508 0.22906 0.4059 1.0164 0.1739 1.4602l0.0145-0.0143zm8.697 4.123c-0.4808 1.1874-1.4116 2.1427-2.5946 2.6627-2.1307 0.6585-1.5365-3.1924-0.8407-3.4071 0.6286-0.0701 1.2651-0.0116 1.8698 0.1717 0.5679 0.0068 1.1197 0.1868 1.58 0.5154l-0.0145 0.0573zm5.0587 2.8631c-1.4495 0.1575-2.2902 0.1432-2.5221-0.3579-0.4638-0.9734 1.1886-3.0206 2.3337-3.1351 3.0004-0.315 4.5369 2.9633 0.1884 3.4787v0.0143zm-2.3337-6.9574c-0.7392-0.3007-0.1014-1.1024 0.1885-1.4316s0.7537-0.74443 1.1161-1.1023c0.4858-0.49748 1.1037-0.84973 1.7829-1.0164 0.9856-0.12884 2.6525 1.5604 2.4351 2.4623-0.1449 0.57264-4.4644 1.4746-5.5226 1.0736v0.0144zm12.422 4.9962c-0.5218 0.6012-1.1016 2.2619-2.0583 2.3764l-0.2609-0.0859c-0.3639-0.0525-0.6974-0.2299-0.9421-0.5011-0.4328-0.7512-0.778-1.5484-1.0292-2.3764-0.2899-0.6155-1.5365-1.1882-1.4495-2.0471 0.087-0.859 2.7396-1.0164 3.9281-1.1023 1.1149-0.0308 2.2259 0.1439 3.2759 0.5153 0.7972 0.2147 1.377 0.2004 1.319 0.859-0.0579 0.6585-2.2322 1.7465-2.783 2.3478v0.0143zm6.7401-10.279c1.609-0.28632 3.5658 1.4316 3.2614 2.6341-0.145 0.58695-1.8988 1.0594-2.5221 1.2025-1.4495 0.34358-2.5366 0.20043-2.899-0.17178-0.8987-0.97348 1.4785-3.536 2.1597-3.6792v0.01431zm2.2902 10.493c-0.1014 0.4152-0.7247 0.6299-1.6379 0.7301-1.6814 0.1575-2.6091 0.1145-2.8265-0.4151-0.4204-1.0451 1.377-3.1066 1.7974-3.1638 0.8117-0.1289 2.9714 1.7465 2.667 2.8345v0.0143z" fill="#CB2529"/>
</svg>
